<?xml version="1.0" encoding="UTF-8"?>
<svg id="Layer_2" data-name="Layer 2" xmlns="http://www.w3.org/2000/svg" xmlns:xlink="http://www.w3.org/1999/xlink" viewBox="0 0 1465.88 346.37">
  <defs>
    <style>
      .cls-1 {
        fill: url(#linear-gradient);
      }

      .cls-2 {
        fill: #555;
      }
    </style>
    <linearGradient id="linear-gradient" x1="1352.98" y1="201.02" x2="2235.14" y2="-681.14" gradientTransform="translate(-1061.12 413.25)" gradientUnits="userSpaceOnUse">
      <stop offset="0" stop-color="#bdfafb"/>
      <stop offset="1" stop-color="#c6ffc3"/>
    </linearGradient>
  </defs>
  <g id="Layer_1-2" data-name="Layer 1">
    <rect class="cls-1" x="559.75" y="-559.75" width="346.37" height="1465.88" rx="40.91" ry="40.91" transform="translate(906.12 -559.75) rotate(90)"/>
    <g id="Layer_2-2" data-name="Layer 2-2">
      <g id="Layer_2-2-2" data-name="Layer 2-2">
        <g id="Layer_1-2" data-name="Layer 1-2">
          <g id="Layer_2-2-2" data-name="Layer 2-2-2">
            <g id="Layer_1-2-2" data-name="Layer 1-2-2">
              <path class="cls-2" d="m570.41,158.46c-.76.38-1.69.19-2.24-.46-2.35-2.69-6.98-4.98-12.22-4.98-7.72,0-11.42,3.23-11.42,7.33,0,4.81,5.67,6.14,12.29,6.93,11.51,1.42,22.22,4.41,22.22,17.57,0,12.29-10.87,17.57-23.16,17.57-10.61,0-18.91-3.07-23.27-11.85-.47-.92-.11-2.03.8-2.51l5.43-2.81c.89-.45,1.98-.13,2.48.73,2.85,4.93,8.67,7.13,14.73,7.13,6.54,0,12.69-2.29,12.69-8.27,0-5.2-5.44-7.33-12.76-8.12-11.26-1.34-21.67-4.33-21.67-16.71,0-11.35,11.19-15.99,21.38-16.07,7.96,0,16.2,2.1,20.68,9.19.55.87.28,2.02-.59,2.57-.04.03-.09.05-.14.08l-5.22,2.67h0Z"/>
              <path class="cls-2" d="m659.74,155.31h-13.77c-1.02,0-1.86-.84-1.86-1.86v-5.73c0-1.02.83-1.86,1.86-1.86h41.65c1.03,0,1.86.83,1.86,1.86v5.73c0,1.03-.83,1.86-1.86,1.86h-13.76c-1.03,0-1.86.83-1.86,1.86v41.97c0,1.02-.83,1.86-1.86,1.86h-6.68c-1.03,0-1.86-.83-1.86-1.86v-41.97c0-1.03-.83-1.86-1.86-1.86Z"/>
              <path class="cls-2" d="m810.17,192.7c.72.73.72,1.9,0,2.63-.03.03-.05.05-.09.08-5.45,4.68-12.22,6.86-19.51,6.86-20.49,0-29.15-14.1-29.23-28.45-.08-14.34,9.32-29.05,29.23-29.05,6.89-.02,13.55,2.47,18.74,7.01.79.67.88,1.85.21,2.64-.04.04-.08.09-.12.13l-4.28,4.13c-.69.65-1.76.69-2.49.08-3.44-2.69-7.69-4.13-12.06-4.09-13.31,0-19.07,9.93-18.99,19.14.08,9.22,5.35,18.67,18.99,18.67,4.59-.04,9.04-1.62,12.63-4.48.74-.6,1.81-.53,2.48.15l4.48,4.53Z"/>
              <path class="cls-2" d="m1055.07,145.93c1.03,0,1.86.84,1.86,1.87v29.73c0,16.31-10,24.66-23.87,24.66s-24.5-8.03-24.5-24.66v-29.73c0-1.03.83-1.86,1.86-1.87h6.58c1.03,0,1.86.84,1.86,1.87v29.73c0,9.93,5.67,15.2,14.25,15.2s13.47-5.75,13.47-15.2v-29.73c0-1.03.84-1.87,1.87-1.87h6.62Z"/>
              <rect class="cls-2" x="408.94" y="145.93" width="10.4" height="18.5" rx="1.86" ry="1.86"/>
              <path class="cls-2" d="m446.44,147.8v19.51c0,1.03-.84,1.87-1.87,1.86h-33.77c-1.03,0-1.86.83-1.86,1.86h0v28.18c0,1.03.83,1.86,1.86,1.86h6.67c1.03,0,1.86-.83,1.87-1.86v-18.57c0-1.03.83-1.86,1.86-1.86h23.36c1.03,0,1.86.83,1.87,1.86v18.57c0,1.03.83,1.86,1.86,1.86h6.58c1.03,0,1.86-.83,1.87-1.86v-51.42c0-1.03-.84-1.87-1.87-1.87h-6.58c-1.02.01-1.85.84-1.85,1.87Z"/>
              <rect class="cls-2" x="700.6" y="145.93" width="10.4" height="18.5" rx="1.86" ry="1.86"/>
              <path class="cls-2" d="m738.1,147.8v19.52c0,1.02-.84,1.86-1.86,1.86h-33.78c-1.02,0-1.86.83-1.86,1.86h0v28.19c0,1.02.83,1.86,1.86,1.86h6.68c1.03,0,1.86-.83,1.86-1.86h0v-18.57c0-1.02.83-1.86,1.86-1.86h23.38c1.02,0,1.86.83,1.86,1.86v18.57c0,1.02.83,1.86,1.86,1.86h6.58c1.03,0,1.86-.83,1.86-1.86h0v-51.42c0-1.03-.83-1.86-1.86-1.86h-6.56c-1.03,0-1.87.82-1.87,1.85h0s0,.01,0,.01Z"/>
              <rect class="cls-2" x="822.16" y="145.93" width="10.4" height="18.5" rx="1.86" ry="1.86"/>
              <path class="cls-2" d="m859.67,147.8v19.51c0,1.02-.83,1.85-1.85,1.86h-33.79c-1.03,0-1.86.83-1.86,1.86h0v28.18c0,1.03.83,1.86,1.86,1.86h6.67c1.03,0,1.86-.83,1.87-1.86v-18.57c0-1.03.83-1.86,1.86-1.86h23.39c1.03,0,1.86.83,1.87,1.86v18.57c0,1.03.83,1.86,1.86,1.86h6.58c1.03,0,1.86-.83,1.87-1.86v-51.42c0-1.03-.84-1.87-1.87-1.87h-6.58c-1.03,0-1.87.83-1.88,1.86h0s0,.01,0,.01Z"/>
              <path class="cls-2" d="m500.47,145.85h-8.93c-.73,0-1.4.43-1.7,1.1l-23.07,51.43c-.42.94,0,2.05.94,2.47.24.1.5.16.76.16h7.19c.73,0,1.4-.43,1.7-1.1l1.01-2.19h0l10.13-23.06h0l5.79-13.28c.41-.94,1.51-1.38,2.45-.97.43.19.78.54.97.97l7.39,16.95c.41.94-.02,2.04-.96,2.46-.24.1-.49.15-.74.15h-11.38c-.73,0-1.4.43-1.7,1.1l-2.62,5.96c-.42.94.01,2.04.95,2.46.24.1.49.16.75.16h19.81c.73,0,1.4.43,1.7,1.1l3.66,8.22c.3.67.97,1.1,1.7,1.1h7.26c1.03,0,1.86-.84,1.86-1.87,0-.26-.05-.52-.16-.76l-23.07-51.44c-.3-.67-.96-1.1-1.69-1.1Z"/>
              <path class="cls-2" d="m621,145.85h-8.93c-.73,0-1.4.43-1.7,1.1l-23.06,51.43c-.42.94,0,2.04.93,2.47.24.11.5.16.77.16h7.19c.73,0,1.4-.43,1.7-1.1l1.02-2.25,10.08-22.93,5.84-13.38c.42-.94,1.52-1.37,2.47-.95.43.19.77.53.95.95l7.39,16.95c.41.95-.02,2.05-.97,2.46-.24.1-.49.15-.74.15h-11.37c-.73,0-1.4.43-1.71,1.1l-2.62,5.96c-.42.94.01,2.04.95,2.46.24.1.49.16.76.16h19.8c.73,0,1.4.43,1.7,1.1l3.66,8.19c.3.67.97,1.1,1.7,1.1h7.25c1.03,0,1.87-.84,1.87-1.87,0-.26-.05-.52-.16-.76l-23.08-51.38c-.3-.66-.96-1.1-1.69-1.1Z"/>
              <path class="cls-2" d="m913.69,145.85h-8.93c-.73,0-1.4.43-1.7,1.1l-23.07,51.43c-.42.94,0,2.04.94,2.46.24.11.5.16.76.16h7.19c.73,0,1.39-.43,1.69-1.1l1.02-2.25,10.07-22.93,5.84-13.39c.42-.94,1.52-1.37,2.47-.95.43.19.77.53.95.95l7.4,16.96c.41.94-.02,2.04-.96,2.46-.24.1-.49.15-.74.15h-11.38c-.73,0-1.4.43-1.7,1.1l-2.62,5.96c-.42.94.01,2.04.95,2.46.24.1.49.16.75.16h19.81c.73,0,1.4.43,1.7,1.1l3.66,8.22c.3.67.96,1.1,1.7,1.1h7.25c1.03,0,1.86-.84,1.86-1.86,0-.26-.05-.52-.16-.76l-23.07-51.42c-.3-.66-.95-1.09-1.68-1.1h0Z"/>
              <path class="cls-2" d="m983.23,183.72c-.69-.77-.61-1.96.16-2.64.19-.16.39-.28.63-.37,8.31-2.83,11.15-9.74,11.15-16.58,0-9.53-6.86-18.2-19.85-18.28-8.13,0-16.25-.07-24.37-.08-1.03,0-1.87.82-1.87,1.85v6.05c0,1.03.84,1.86,1.87,1.86h24.37c6.53,0,9.45,4.41,9.45,8.82s-2.83,8.82-9.45,8.82h-24.37c-1.03,0-1.87.84-1.87,1.87v24.08c0,1.03.84,1.87,1.87,1.87h6.66c1.03,0,1.87-.84,1.87-1.87v-14.7c0-1.03.83-1.86,1.86-1.86h7.29c.54,0,1.05.23,1.4.64l14.96,17.15c.36.41.87.64,1.41.64h11.51c0-.45-.16-.9-.47-1.24l-14.22-16.05h0Z"/>
            </g>
          </g>
        </g>
      </g>
    </g>
  </g>
</svg>